
nColumns=19
nRows=105
DataType=double
version=3
OpenSimVersion=4.4-2022-10-11-798caa840
endheader
time	ground_force_calcn_r_vx	ground_force_calcn_r_vy	ground_force_calcn_r_vz	ground_force_calcn_r_px	ground_force_calcn_r_py	ground_force_calcn_r_pz	ground_force_calcn_r_mx	ground_force_calcn_r_my	ground_force_calcn_r_mz	ground_force_calcn_l_vx	ground_force_calcn_l_vy	ground_force_calcn_l_vz	ground_force_calcn_l_px	ground_force_calcn_l_py	ground_force_calcn_l_pz	ground_force_calcn_l_mx	ground_force_calcn_l_my	ground_force_calcn_l_mz
1.3	-14.9585	21.0305	-2.27864	-0.111622	0	-0.388065	-0.123714	0.173932	-0.0188455	0	0	0	0	0	0	0	0	0
1.31	-227.267	355.966	-53.593	-0.136592	0	-0.378548	-0.352065	0.551435	-0.08302229999999999	-27.001	30.6847	5.6831	-0.051384	0	-0.693528	0.391831	-0.445289	-0.0824717
1.32	-408.395	720.283	-119.226	-0.142518	0	-0.382234	-1.03678	1.82856	-0.302674	-217.784	327.349	33.4291	-0.102054	0	-0.731886	0.226018	-0.339726	-0.034693
1.33	-179.679	758.917	-104.781	-0.170074	0	-0.389127	-0.510559	2.15647	-0.297736	-298.386	563.932	65.8143	-0.111028	0	-0.730913	0.629037	-1.18884	-0.138745
1.34	-58.1164	1081.93	-79.76609999999999	-0.221812	0	-0.405074	0.191841	-3.57145	0.263307	-122.145	623.923	67.1326	-0.136478	0	-0.726142	0.103936	-0.530909	-0.0571245
1.35	-45.4554	1390.41	-57.1021	-0.245704	0	-0.414592	0.23969	-7.33174	0.301103	-48.9366	774.011	42.7306	-0.172787	0	-0.72009	-0.291953	4.61771	0.254928
1.36	-191.827	1124.76	-81.38160000000001	-0.231537	0	-0.412386	1.20512	-7.06612	0.511266	-49.905	835.383	22.4091	-0.190439	0	-0.716175	-0.428379	7.17084	0.192357
1.37	-291.804	825.145	-86.58320000000001	-0.202323	0	-0.407182	1.74761	-4.9418	0.518547	-147.146	680.824	42.0173	-0.176719	0	-0.7183619999999999	-1.23054	5.69356	0.35138
1.38	-237.515	679.673	-79.39830000000001	-0.185692	0	-0.403546	1.46121	-4.1814	0.488465	-225.572	559.454	43.7935	-0.154058	0	-0.720104	-1.72783	4.28528	0.335448
1.39	-177.857	640.857	-71.8459	-0.180076	0	-0.4021	1.20192	-4.33078	0.485519	-218.181	522.599	35.6663	-0.14487	0	-0.720228	-2.0971	5.02309	0.342816
1.4	-180.855	642.933	-65.1533	-0.176053	0	-0.401782	1.35829	-4.82868	0.489327	-185.397	529.976	38.7209	-0.144096	0	-0.720404	-2.02805	5.79738	0.423566
1.41	-191.29	638.567	-56.9854	-0.172912	0	-0.401805	1.51881	-5.07012	0.452455	-168.343	562.5940000000001	50.6839	-0.146	0	-0.720948	-1.82174	6.08815	0.54848
1.42	-170.359	627.086	-50.6235	-0.174033	0	-0.402622	1.30898	-4.81833	0.388975	-161.699	609.688	61.1716	-0.14944	0	-0.721227	-1.74425	6.5767	0.6598579999999999
1.43	-127.49	642.048	-48.4867	-0.184119	0	-0.405374	0.872454	-4.39372	0.331809	-149.879	652.74	67.89400000000001	-0.1536	0	-0.721418	-1.67443	7.29233	0.758503
1.44	-82.74039999999999	680.828	-46.3688	-0.200114	0	-0.409629	0.473667	-3.89757	0.26545	-126.383	666.723	73.0889	-0.157031	0	-0.721705	-1.46915	7.75036	0.849627
1.45	-49.01	689.942	-50.055	-0.212946	0	-0.412675	0.186038	-2.61897	0.190005	-100.077	641.452	76.4765	-0.158078	0	-0.722317	-1.21776	7.80531	0.930581
1.46	-29.3136	665.626	-52.013	-0.220555	0	-0.414246	0.0560648	-1.27307	0.0994791	-83.2509	585.569	76.5271	-0.155561	0	-0.723117	-1.08177	7.60893	0.994398
1.47	-13.6434	641.697	-48.6573	-0.223614	0	-0.414928	0.0165698	-0.779335	0.0590938	-78.482	522.482	74.2556	-0.150506	0	-0.723902	-1.12687	7.50194	1.06618
1.48	-7.8527	629.883	-47.4846	-0.22086	0	-0.41428	0.0143279	-1.14928	0.08663990000000001	-78.6973	475.276	71.5626	-0.146319	0	-0.724387	-1.26492	7.63923	1.15025
1.49	-16.0694	620.518	-48.0054	-0.214217	0	-0.412927	0.0484474	-1.87079	0.144731	-79.0099	450.09	68.1613	-0.144844	0	-0.72412	-1.41377	8.053739999999999	1.21965
1.5	-24.1452	612.554	-49.4688	-0.20825	0	-0.411555	0.0978691	-2.4829	0.200515	-76.5468	443.621	63.4647	-0.14628	0	-0.723144	-1.52337	8.828569999999999	1.26302
1.51	-23.9538	611.852	-52.646	-0.205245	0	-0.410687	0.111223	-2.84097	0.244447	-71.7581	455.622	58.7754	-0.150784	0	-0.721353	-1.55432	9.869020000000001	1.27311
1.52	-19.343	617.734	-55.8008	-0.204619	0	-0.410413	0.09869509999999999	-3.15191	0.284716	-63.2325	487.512	54.514	-0.158441	0	-0.718778	-1.42867	11.0148	1.23169
1.53	-16.4231	624.35	-58.1218	-0.204763	0	-0.410283	0.0916155	-3.48291	0.32423	-44.5867	540.138	48.0621	-0.169035	0	-0.715268	-1.00903	12.2237	1.08768
1.54	-16.3761	627.501	-60.6743	-0.204908	0	-0.410078	0.0983372	-3.76809	0.364344	-25.1386	589.245	47.4744	-0.176576	0	-0.7139180000000001	-0.5252289999999999	12.3113	0.991897
1.55	-17.314	624.171	-62.8672	-0.205035	0	-0.410042	0.112165	-4.04354	0.407269	-25.4949	603.458	57.3687	-0.176221	0	-0.716407	-0.459129	10.8675	1.03313
1.56	-18.0621	614.585	-62.6437	-0.205451	0	-0.41045	0.130521	-4.44114	0.452679	-37.6561	596.4880000000001	61.8598	-0.171212	0	-0.719513	-0.596969	9.45623	0.980675
1.57	-18.4237	602.698	-60.6131	-0.206485	0	-0.411349	0.153489	-5.02111	0.5049709999999999	-49.087	587.372	57.4792	-0.165406	0	-0.721486	-0.7299369999999999	8.73438	0.854731
1.58	-17.5975	591.843	-57.6068	-0.208074	0	-0.412906	0.168902	-5.68056	0.552915	-56.8922	580.759	51.714	-0.160285	0	-0.722599	-0.8025369999999999	8.192349999999999	0.7294929999999999
1.59	-14.621	583.846	-54.5839	-0.21009	0	-0.414649	0.15847	-6.32802	0.5916090000000001	-62.4693	579.1	49.5123	-0.156048	0	-0.723474	-0.804287	7.45586	0.637467
1.6	-10.0393	579.3	-51.3915	-0.212115	0	-0.416407	0.119858	-6.91621	0.613558	-66.2972	581.741	51.4147	-0.152086	0	-0.724567	-0.742653	6.51659	0.575941
1.61	-5.97474	575.836	-48.5107	-0.21339	0	-0.418078	0.07660690000000001	-7.38326	0.621994	-67.7645	586.039	55.4452	-0.148318	0	-0.725638	-0.644481	5.57357	0.527317
1.62	-2.05441	571.043	-46.0373	-0.214128	0	-0.419446	0.0277992	-7.72707	0.622954	-67.06140000000001	591.418	60.3779	-0.144905	0	-0.726652	-0.532158	4.69313	0.479122
1.63	2.53066	566.776	-43.8348	-0.214247	0	-0.420567	-0.0354752	-7.94516	0.614484	-65.2013	595.812	65.256	-0.141604	0	-0.727685	-0.426553	3.89786	0.426911
1.64	5.20039	563.271	-43.3982	-0.212537	0	-0.420814	-0.0736043	-7.97232	0.614241	-63.07	597.1950000000001	70.0797	-0.138081	0	-0.728815	-0.333894	3.16156	0.371003
1.65	2.78775	560.345	-45.2808	-0.208081	0	-0.41968	-0.0383588	-7.7102	0.623053	-61.9425	594.706	74.83069999999999	-0.134189	0	-0.729827	-0.253286	2.43178	0.305987
1.66	-2.38612	556.684	-49.0702	-0.201614	0	-0.417566	0.0308392	-7.19483	0.634205	-62.323	590.327	78.61499999999999	-0.13026	0	-0.730669	-0.188918	1.78944	0.238303
1.67	-8.768890000000001	553.204	-52.62	-0.194365	0	-0.415264	0.105669	-6.66634	0.634093	-63.0503	587.271	80.6862	-0.127068	0	-0.731179	-0.150206	1.39907	0.19222
1.68	-16.1759	549.647	-55.3914	-0.18687	0	-0.413015	0.183571	-6.23761	0.6286040000000001	-63.1245	584.766	82.1223	-0.124791	0	-0.731424	-0.13358	1.23744	0.173781
1.69	-23.9559	545.688	-58.3783	-0.179696	0	-0.410822	0.253706	-5.77914	0.618259	-62.354	580.677	84.70359999999999	-0.122932	0	-0.731542	-0.121459	1.1311	0.164993
1.7	-31.0321	541.79	-62.0789	-0.173204	0	-0.408722	0.296376	-5.17444	0.592893	-61.3305	575.537	88.4799	-0.121086	0	-0.731476	-0.113671	1.06671	0.163991
1.71	-35.447	539.544	-66.0317	-0.167952	0	-0.406903	0.295301	-4.49482	0.550095	-60.9477	570.598	91.9577	-0.119289	0	-0.731251	-0.121382	1.13639	0.183141
1.72	-37.7058	539.381	-69.54430000000001	-0.163966	0	-0.405413	0.270288	-3.86647	0.498518	-61.3283	565.995	94.4859	-0.117563	0	-0.730995	-0.155551	1.43558	0.239652
1.73	-39.0332	541.752	-72.1395	-0.160983	0	-0.404231	0.247477	-3.43481	0.457378	-61.6893	562.38	96.3723	-0.115779	0	-0.730575	-0.212663	1.93871	0.332227
1.74	-39.178	546.362	-73.9995	-0.15883	0	-0.403214	0.225721	-3.14782	0.426343	-61.7782	560.564	97.4781	-0.113991	0	-0.730028	-0.275447	2.49936	0.434621
1.75	-39.6819	550.723	-75.61920000000001	-0.15693	0	-0.40229	0.207507	-2.87987	0.395431	-61.88	560.579	96.30500000000001	-0.112381	0	-0.729304	-0.338278	3.06451	0.526469
1.76	-41.7748	553.52	-76.90770000000001	-0.154971	0	-0.401511	0.199458	-2.64284	0.367204	-62.882	562.064	92.4028	-0.110711	0	-0.728577	-0.397961	3.55713	0.584789
1.77	-45.2856	554.418	-77.6696	-0.15282	0	-0.400694	0.196301	-2.40326	0.336678	-65.34229999999999	562.379	87.5945	-0.108908	0	-0.728031	-0.432322	3.72085	0.579549
1.78	-50.5323	553.124	-78.24850000000001	-0.150255	0	-0.399648	0.196036	-2.1458	0.303559	-68.90389999999999	559.434	83.3475	-0.106776	0	-0.727761	-0.429123	3.48407	0.519075
1.79	-57.2046	549.403	-77.8415	-0.147541	0	-0.398842	0.194842	-1.87129	0.265132	-73.1069	552.574	79.70359999999999	-0.104499	0	-0.727668	-0.401601	3.03547	0.437839
1.8	-64.2634	543.704	-75.7221	-0.144973	0	-0.397961	0.203558	-1.72221	0.239854	-77.5759	541.703	75.82550000000001	-0.102215	0	-0.7275509999999999	-0.358493	2.50331	0.350404
1.81	-70.9333	534.246	-72.2364	-0.142432	0	-0.397184	0.21653	-1.63083	0.220507	-81.92440000000001	525.235	70.5167	-0.0998909	0	-0.727535	-0.318736	2.04349	0.274353
1.82	-77.07129999999999	519.52	-68.0731	-0.139824	0	-0.396454	0.213141	-1.43673	0.188256	-85.99079999999999	499.695	63.0853	-0.097689	0	-0.727836	-0.301778	1.75364	0.221393
1.83	-81.142	497.368	-62.9808	-0.13747	0	-0.395517	0.180498	-1.10638	0.140099	-87.3862	459.989	52.8759	-0.0951347	0	-0.728236	-0.304191	1.60122	0.184061
1.84	-80.6652	462.949	-55.7606	-0.135116	0	-0.394216	0.122962	-0.705697	0.0849989	-82.1185	399.826	39.9753	-0.09186569999999999	0	-0.728692	-0.298619	1.45394	0.145368
1.85	-73.8856	411.591	-45.0241	-0.132388	0	-0.392494	0.0674492	-0.375736	0.0411019	-68.6977	313.772	25.6416	-0.08762590000000001	0	-0.7297670000000001	-0.272472	1.2445	0.101701
1.86	-58.2257	336.183	-29.738	-0.129183	0	-0.39038	0.0460744	-0.266025	0.0235319	-48.4762	200.029	12.1425	-0.08132449999999999	0	-0.730617	-0.212549	0.87705	0.0532401
1.87	-34.784	230.072	-11.3277	-0.125321	0	-0.388711	0.0454809	-0.300825	0.0148112	-26.9222	80.78919999999999	2.97745	-0.0659146	0	-0.725765	-0.104918	0.314843	0.0116034
1.88	-12.2982	105.564	3.16117	-0.118937	0	-0.39053	0.0247747	-0.212659	-0.00636817	0	0	0	0	0	0	0	0	0
1.89	0	0	0	0	0	0	0	0	0	0	0	0	0	0	0	0	0	0
1.9	0	0	0	0	0	0	0	0	0	0	0	0	0	0	0	0	0	0
1.91	0	0	0	0	0	0	0	0	0	0	0	0	0	0	0	0	0	0
1.92	0	0	0	0	0	0	0	0	0	0	0	0	0	0	0	0	0	0
1.93	0	0	0	0	0	0	0	0	0	0	0	0	0	0	0	0	0	0
1.94	0	0	0	0	0	0	0	0	0	0	0	0	0	0	0	0	0	0
1.95	0	0	0	0	0	0	0	0	0	0	0	0	0	0	0	0	0	0
1.96	0	0	0	0	0	0	0	0	0	0	0	0	0	0	0	0	0	0
1.97	0	0	0	0	0	0	0	0	0	0	0	0	0	0	0	0	0	0
1.98	0	0	0	0	0	0	0	0	0	0	0	0	0	0	0	0	0	0
1.99	0	0	0	0	0	0	0	0	0	0	0	0	0	0	0	0	0	0
2	0	0	0	0	0	0	0	0	0	0	0	0	0	0	0	0	0	0
2.01	0	0	0	0	0	0	0	0	0	0	0	0	0	0	0	0	0	0
2.02	0	0	0	0	0	0	0	0	0	0	0	0	0	0	0	0	0	0
2.03	0	0	0	0	0	0	0	0	0	0	0	0	0	0	0	0	0	0
2.04	0	0	0	0	0	0	0	0	0	0	0	0	0	0	0	0	0	0
2.05	0	0	0	0	0	0	0	0	0	0	0	0	0	0	0	0	0	0
2.06	0	0	0	0	0	0	0	0	0	0	0	0	0	0	0	0	0	0
2.07	0	0	0	0	0	0	0	0	0	0	0	0	0	0	0	0	0	0
2.08	0	0	0	0	0	0	0	0	0	0	0	0	0	0	0	0	0	0
2.09	0	0	0	0	0	0	0	0	0	0	0	0	0	0	0	0	0	0
2.1	0	0	0	0	0	0	0	0	0	0	0	0	0	0	0	0	0	0
2.11	0	0	0	0	0	0	0	0	0	0	0	0	0	0	0	0	0	0
2.12	0	0	0	0	0	0	0	0	0	0	0	0	0	0	0	0	0	0
2.13	0	0	0	0	0	0	0	0	0	0	0	0	0	0	0	0	0	0
2.14	0	0	0	0	0	0	0	0	0	0	0	0	0	0	0	0	0	0
2.15	0	0	0	0	0	0	0	0	0	0	0	0	0	0	0	0	0	0
2.16	0	0	0	0	0	0	0	0	0	0	0	0	0	0	0	0	0	0
2.17	0	0	0	0	0	0	0	0	0	0	0	0	0	0	0	0	0	0
2.18	0	0	0	0	0	0	0	0	0	0	0	0	0	0	0	0	0	0
2.19	0	0	0	0	0	0	0	0	0	0	0	0	0	0	0	0	0	0
2.2	0	0	0	0	0	0	0	0	0	0	0	0	0	0	0	0	0	0
2.21	0	0	0	0	0	0	0	0	0	0	0	0	0	0	0	0	0	0
2.22	0	0	0	0	0	0	0	0	0	0	0	0	0	0	0	0	0	0
2.23	0	0	0	0	0	0	0	0	0	0	0	0	0	0	0	0	0	0
2.24	0	0	0	0	0	0	0	0	0	0	0	0	0	0	0	0	0	0
2.25	0	0	0	0	0	0	0	0	0	0	0	0	0	0	0	0	0	0
2.26	0	0	0	0	0	0	0	0	0	0	0	0	0	0	0	0	0	0
2.27	0	0	0	0	0	0	0	0	0	0	0	0	0	0	0	0	0	0
2.28	0	0	0	0	0	0	0	0	0	0	0	0	0	0	0	0	0	0
2.29	-23.5188	36.3419	-3.31582	-0.255703	0	-0.381853	-0.126231	0.195055	-0.0177968	0	0	0	0	0	0	0	0	0
2.3	-99.7968	254.619	-20.4511	-0.271133	0	-0.369113	-0.2846	0.726122	-0.0583224	-33.5395	81.4883	4.17012	-0.264472	0	-0.687015	-0.0486249	0.11814	0.00604576
2.31	-110.889	437.776	-37.9863	-0.280889	0	-0.368635	-0.461826	1.82323	-0.158204	-75.3159	266.485	12.2346	-0.278842	0	-0.696186	-0.00668336	0.0236473	0.00108567
2.32	-27.1989	397.213	-44.2076	-0.292632	0	-0.367248	-0.15979	2.33357	-0.259713	-33.9902	324.826	17.1724	-0.290151	0	-0.694573	-0.0137357	0.131265	0.00693953
2.33	21.0901	387.732	-59.0984	-0.303844	0	-0.366537	0.170509	3.13472	-0.477797	19.0032	318.501	20.2437	-0.30213	0	-0.6905210000000001	0.0456462	0.765046	0.0486258
2.34	4.35491	481.976	-72.67910000000001	-0.310407	0	-0.369492	0.0310138	3.43242	-0.517589	9.12823	354.165	24.4155	-0.307364	0	-0.688424	0.0229571	0.8907080000000001	0.061404
